<svg width="98" height="62" viewBox="0 0 98 62" fill="none" xmlns="http://www.w3.org/2000/svg">
<g filter="url(#filter0_d)">
<rect x="23.25" y="28" width="69" height="25.875" fill="#7B61FF"/>
</g>
<path d="M36.6074 42.2855C36.6116 43.3977 35.7849 43.9261 35.069 43.9261C34.2807 43.9261 33.7352 43.3551 33.7352 42.4645V38.4545H32.4611V42.6179C32.4611 44.2415 33.3517 45.0852 34.6088 45.0852C35.5932 45.0852 36.2622 44.5653 36.5648 43.8665H36.6329V45H37.8858V38.4545H36.6074V42.2855ZM44.6226 40.0526C44.3584 39.0341 43.5615 38.3693 42.1468 38.3693C40.6681 38.3693 39.6198 39.1491 39.6198 40.3082C39.6198 41.2372 40.1823 41.8551 41.4095 42.1278L42.5175 42.3707C43.1482 42.5114 43.4422 42.7926 43.4422 43.2017C43.4422 43.7088 42.901 44.1051 42.0658 44.1051C41.303 44.1051 40.813 43.777 40.6595 43.1335L39.428 43.321C39.6411 44.4801 40.6041 45.1321 42.0743 45.1321C43.6553 45.1321 44.7505 44.2926 44.7505 43.108C44.7505 42.1832 44.1624 41.6122 42.9607 41.3352L41.9209 41.0966C41.2007 40.9261 40.8897 40.6832 40.8939 40.2401C40.8897 39.7372 41.4351 39.3793 42.1595 39.3793C42.9522 39.3793 43.3186 39.8182 43.4678 40.2571L44.6226 40.0526ZM50.4177 42.2855C50.4219 43.3977 49.5952 43.9261 48.8793 43.9261C48.091 43.9261 47.5455 43.3551 47.5455 42.4645V38.4545H46.2714V42.6179C46.2714 44.2415 47.162 45.0852 48.4191 45.0852C49.4035 45.0852 50.0725 44.5653 50.3751 43.8665H50.4433V45H51.6961V38.4545H50.4177V42.2855ZM55.4329 45.1449C56.5153 45.1449 57.1247 44.5952 57.3676 44.1051H57.4187V45H58.663V40.6534C58.663 38.7486 57.163 38.3693 56.1233 38.3693C54.9386 38.3693 53.8477 38.8466 53.4216 40.0398L54.619 40.3125C54.8065 39.848 55.2838 39.4006 56.1403 39.4006C56.9628 39.4006 57.3846 39.831 57.3846 40.5724V40.6023C57.3846 41.0668 56.9074 41.0582 55.7312 41.1946C54.4912 41.3395 53.2213 41.6634 53.2213 43.1506C53.2213 44.4375 54.1886 45.1449 55.4329 45.1449ZM55.7099 44.1222C54.9897 44.1222 54.4699 43.7983 54.4699 43.1676C54.4699 42.4858 55.075 42.2429 55.8122 42.1449C56.2255 42.0895 57.2057 41.9787 57.3889 41.7955V42.6392C57.3889 43.4148 56.771 44.1222 55.7099 44.1222ZM55.663 37.581H56.6815L58.0025 35.6165H56.6602L55.663 37.581ZM60.4801 45H61.7543V41.0028C61.7543 40.1463 62.4148 39.5284 63.3182 39.5284C63.5824 39.5284 63.8807 39.5753 63.983 39.6051V38.3864C63.8551 38.3693 63.6037 38.3565 63.4418 38.3565C62.6747 38.3565 62.0185 38.7912 61.7798 39.4943H61.7117V38.4545H60.4801V45ZM65.2056 45H66.4797V38.4545H65.2056V45ZM65.8491 37.4446C66.288 37.4446 66.6545 37.1037 66.6545 36.6861C66.6545 36.2685 66.288 35.9233 65.8491 35.9233C65.4059 35.9233 65.0437 36.2685 65.0437 36.6861C65.0437 37.1037 65.4059 37.4446 65.8491 37.4446ZM71.071 45.1321C72.9162 45.1321 74.1221 43.7812 74.1221 41.7571C74.1221 39.7202 72.9162 38.3693 71.071 38.3693C69.2258 38.3693 68.0198 39.7202 68.0198 41.7571C68.0198 43.7812 69.2258 45.1321 71.071 45.1321ZM71.0752 44.0625C69.8693 44.0625 69.3068 43.0099 69.3068 41.7528C69.3068 40.5 69.8693 39.4347 71.0752 39.4347C72.2727 39.4347 72.8352 40.5 72.8352 41.7528C72.8352 43.0099 72.2727 44.0625 71.0752 44.0625ZM82.2542 36.2727H80.9715L78.7939 37.696V38.9574L80.882 37.5938H80.9331V45H82.2542V36.2727Z" fill="white"/>
<g filter="url(#filter1_d)">
<path d="M9.59375 23.6875L6 5L21.8125 14.3438L13.9062 16.5L9.59375 23.6875Z" fill="#7B61FF"/>
<path d="M8.88793 23.8232L9.24293 25.6692L10.2101 24.0573L14.374 17.1174L22.0016 15.0372L23.6418 14.5898L22.1781 13.725L6.36565 4.38121L4.99311 3.57016L5.29418 5.13573L8.88793 23.8232Z" stroke="white" stroke-width="1.4375" stroke-linecap="square"/>
</g>
<defs>
<filter id="filter0_d" x="17.5" y="23.6875" width="80.5" height="37.375" filterUnits="userSpaceOnUse" color-interpolation-filters="sRGB">
<feFlood flood-opacity="0" result="BackgroundImageFix"/>
<feColorMatrix in="SourceAlpha" type="matrix" values="0 0 0 0 0 0 0 0 0 0 0 0 0 0 0 0 0 0 127 0"/>
<feOffset dy="1.4375"/>
<feGaussianBlur stdDeviation="2.875"/>
<feColorMatrix type="matrix" values="0 0 0 0 0 0 0 0 0 0 0 0 0 0 0 0 0 0 0.16 0"/>
<feBlend mode="normal" in2="BackgroundImageFix" result="effect1_dropShadow"/>
<feBlend mode="normal" in="SourceGraphic" in2="effect1_dropShadow" result="shape"/>
</filter>
<filter id="filter1_d" x="0.986206" y="0.140381" width="27.4849" height="31.5106" filterUnits="userSpaceOnUse" color-interpolation-filters="sRGB">
<feFlood flood-opacity="0" result="BackgroundImageFix"/>
<feColorMatrix in="SourceAlpha" type="matrix" values="0 0 0 0 0 0 0 0 0 0 0 0 0 0 0 0 0 0 127 0"/>
<feOffset dy="1"/>
<feGaussianBlur stdDeviation="1.5"/>
<feColorMatrix type="matrix" values="0 0 0 0 0 0 0 0 0 0 0 0 0 0 0 0 0 0 0.35 0"/>
<feBlend mode="normal" in2="BackgroundImageFix" result="effect1_dropShadow"/>
<feBlend mode="normal" in="SourceGraphic" in2="effect1_dropShadow" result="shape"/>
</filter>
</defs>
</svg>
