<svg width="98" height="62" viewBox="0 0 98 62" fill="none" xmlns="http://www.w3.org/2000/svg">
<g filter="url(#filter0_d)">
<rect x="23.25" y="28" width="69" height="25.875" fill="#EF5533"/>
</g>
<path d="M35.7636 42.2855C35.7679 43.3977 34.9412 43.9261 34.2253 43.9261C33.4369 43.9261 32.8915 43.3551 32.8915 42.4645V38.4545H31.6173V42.6179C31.6173 44.2415 32.5079 45.0852 33.765 45.0852C34.7494 45.0852 35.4185 44.5653 35.721 43.8665H35.7892V45H37.042V38.4545H35.7636V42.2855ZM43.7789 40.0526C43.5147 39.0341 42.7178 38.3693 41.303 38.3693C39.8243 38.3693 38.776 39.1491 38.776 40.3082C38.776 41.2372 39.3385 41.8551 40.5658 42.1278L41.6737 42.3707C42.3044 42.5114 42.5985 42.7926 42.5985 43.2017C42.5985 43.7088 42.0573 44.1051 41.222 44.1051C40.4593 44.1051 39.9692 43.777 39.8158 43.1335L38.5843 43.321C38.7973 44.4801 39.7604 45.1321 41.2306 45.1321C42.8115 45.1321 43.9067 44.2926 43.9067 43.108C43.9067 42.1832 43.3186 41.6122 42.1169 41.3352L41.0772 41.0966C40.357 40.9261 40.0459 40.6832 40.0502 40.2401C40.0459 39.7372 40.5914 39.3793 41.3158 39.3793C42.1084 39.3793 42.4749 39.8182 42.624 40.2571L43.7789 40.0526ZM49.5739 42.2855C49.5782 43.3977 48.7515 43.9261 48.0356 43.9261C47.2472 43.9261 46.7018 43.3551 46.7018 42.4645V38.4545H45.4276V42.6179C45.4276 44.2415 46.3183 45.0852 47.5754 45.0852C48.5597 45.0852 49.2288 44.5653 49.5313 43.8665H49.5995V45H50.8523V38.4545H49.5739V42.2855ZM54.5892 45.1449C55.6716 45.1449 56.2809 44.5952 56.5238 44.1051H56.575V45H57.8193V40.6534C57.8193 38.7486 56.3193 38.3693 55.2795 38.3693C54.0949 38.3693 53.0039 38.8466 52.5778 40.0398L53.7753 40.3125C53.9628 39.848 54.44 39.4006 55.2966 39.4006C56.119 39.4006 56.5409 39.831 56.5409 40.5724V40.6023C56.5409 41.0668 56.0636 41.0582 54.8875 41.1946C53.6474 41.3395 52.3775 41.6634 52.3775 43.1506C52.3775 44.4375 53.3449 45.1449 54.5892 45.1449ZM54.8662 44.1222C54.146 44.1222 53.6261 43.7983 53.6261 43.1676C53.6261 42.4858 54.2312 42.2429 54.9684 42.1449C55.3818 42.0895 56.3619 41.9787 56.5451 41.7955V42.6392C56.5451 43.4148 55.9272 44.1222 54.8662 44.1222ZM54.8193 37.581H55.8378L57.1588 35.6165H55.8164L54.8193 37.581ZM59.6364 45H60.9105V41.0028C60.9105 40.1463 61.571 39.5284 62.4744 39.5284C62.7386 39.5284 63.0369 39.5753 63.1392 39.6051V38.3864C63.0114 38.3693 62.76 38.3565 62.598 38.3565C61.831 38.3565 61.1747 38.7912 60.9361 39.4943H60.8679V38.4545H59.6364V45ZM64.3618 45H65.636V38.4545H64.3618V45ZM65.0053 37.4446C65.4442 37.4446 65.8107 37.1037 65.8107 36.6861C65.8107 36.2685 65.4442 35.9233 65.0053 35.9233C64.5621 35.9233 64.1999 36.2685 64.1999 36.6861C64.1999 37.1037 64.5621 37.4446 65.0053 37.4446ZM70.2272 45.1321C72.0724 45.1321 73.2784 43.7812 73.2784 41.7571C73.2784 39.7202 72.0724 38.3693 70.2272 38.3693C68.3821 38.3693 67.1761 39.7202 67.1761 41.7571C67.1761 43.7812 68.3821 45.1321 70.2272 45.1321ZM70.2315 44.0625C69.0255 44.0625 68.463 43.0099 68.463 41.7528C68.463 40.5 69.0255 39.4347 70.2315 39.4347C71.4289 39.4347 71.9914 40.5 71.9914 41.7528C71.9914 43.0099 71.4289 44.0625 70.2315 44.0625ZM78.0993 45H83.8436V43.8707H79.9147V43.8068L81.649 41.9915C83.2471 40.3764 83.703 39.6051 83.703 38.6293C83.703 37.2273 82.561 36.1534 80.9161 36.1534C79.284 36.1534 78.0908 37.2102 78.0908 38.804H79.3479C79.3436 37.8665 79.9488 37.2528 80.8905 37.2528C81.7769 37.2528 82.4502 37.7983 82.4502 38.6676C82.4502 39.4389 81.99 39.9929 81.0525 40.9858L78.0993 44.0455V45Z" fill="white"/>
<g filter="url(#filter1_d)">
<path d="M9.59375 23.6875L6 5L21.8125 14.3438L13.9062 16.5L9.59375 23.6875Z" fill="#EF5533"/>
<path d="M8.88793 23.8232L9.24293 25.6692L10.2101 24.0573L14.374 17.1174L22.0016 15.0372L23.6418 14.5898L22.1781 13.725L6.36565 4.38121L4.99311 3.57016L5.29418 5.13573L8.88793 23.8232Z" stroke="white" stroke-width="1.4375" stroke-linecap="square"/>
</g>
<defs>
<filter id="filter0_d" x="17.5" y="23.6875" width="80.5" height="37.375" filterUnits="userSpaceOnUse" color-interpolation-filters="sRGB">
<feFlood flood-opacity="0" result="BackgroundImageFix"/>
<feColorMatrix in="SourceAlpha" type="matrix" values="0 0 0 0 0 0 0 0 0 0 0 0 0 0 0 0 0 0 127 0"/>
<feOffset dy="1.4375"/>
<feGaussianBlur stdDeviation="2.875"/>
<feColorMatrix type="matrix" values="0 0 0 0 0 0 0 0 0 0 0 0 0 0 0 0 0 0 0.16 0"/>
<feBlend mode="normal" in2="BackgroundImageFix" result="effect1_dropShadow"/>
<feBlend mode="normal" in="SourceGraphic" in2="effect1_dropShadow" result="shape"/>
</filter>
<filter id="filter1_d" x="0.986206" y="0.140381" width="27.4849" height="31.5106" filterUnits="userSpaceOnUse" color-interpolation-filters="sRGB">
<feFlood flood-opacity="0" result="BackgroundImageFix"/>
<feColorMatrix in="SourceAlpha" type="matrix" values="0 0 0 0 0 0 0 0 0 0 0 0 0 0 0 0 0 0 127 0"/>
<feOffset dy="1"/>
<feGaussianBlur stdDeviation="1.5"/>
<feColorMatrix type="matrix" values="0 0 0 0 0 0 0 0 0 0 0 0 0 0 0 0 0 0 0.35 0"/>
<feBlend mode="normal" in2="BackgroundImageFix" result="effect1_dropShadow"/>
<feBlend mode="normal" in="SourceGraphic" in2="effect1_dropShadow" result="shape"/>
</filter>
</defs>
</svg>
