<svg width="98" height="62" viewBox="0 0 98 62" fill="none" xmlns="http://www.w3.org/2000/svg">
<g filter="url(#filter0_d)">
<rect x="23.25" y="28" width="69" height="25.875" fill="#1BC47D"/>
</g>
<path d="M35.5761 42.2855C35.5804 43.3977 34.7537 43.9261 34.0378 43.9261C33.2494 43.9261 32.704 43.3551 32.704 42.4645V38.4545H31.4298V42.6179C31.4298 44.2415 32.3204 45.0852 33.5775 45.0852C34.5619 45.0852 35.231 44.5653 35.5335 43.8665H35.6017V45H36.8545V38.4545H35.5761V42.2855ZM43.5914 40.0526C43.3272 39.0341 42.5303 38.3693 41.1155 38.3693C39.6368 38.3693 38.5885 39.1491 38.5885 40.3082C38.5885 41.2372 39.151 41.8551 40.3783 42.1278L41.4862 42.3707C42.1169 42.5114 42.411 42.7926 42.411 43.2017C42.411 43.7088 41.8698 44.1051 41.0345 44.1051C40.2718 44.1051 39.7817 43.777 39.6283 43.1335L38.3968 43.321C38.6098 44.4801 39.5729 45.1321 41.0431 45.1321C42.624 45.1321 43.7192 44.2926 43.7192 43.108C43.7192 42.1832 43.1311 41.6122 41.9294 41.3352L40.8897 41.0966C40.1695 40.9261 39.8584 40.6832 39.8627 40.2401C39.8584 39.7372 40.4039 39.3793 41.1283 39.3793C41.9209 39.3793 42.2874 39.8182 42.4365 40.2571L43.5914 40.0526ZM49.3864 42.2855C49.3907 43.3977 48.564 43.9261 47.8481 43.9261C47.0597 43.9261 46.5143 43.3551 46.5143 42.4645V38.4545H45.2401V42.6179C45.2401 44.2415 46.1308 45.0852 47.3879 45.0852C48.3722 45.0852 49.0413 44.5653 49.3438 43.8665H49.412V45H50.6648V38.4545H49.3864V42.2855ZM54.4017 45.1449C55.4841 45.1449 56.0934 44.5952 56.3363 44.1051H56.3875V45H57.6318V40.6534C57.6318 38.7486 56.1318 38.3693 55.092 38.3693C53.9074 38.3693 52.8164 38.8466 52.3903 40.0398L53.5878 40.3125C53.7753 39.848 54.2525 39.4006 55.1091 39.4006C55.9315 39.4006 56.3534 39.831 56.3534 40.5724V40.6023C56.3534 41.0668 55.8761 41.0582 54.7 41.1946C53.4599 41.3395 52.19 41.6634 52.19 43.1506C52.19 44.4375 53.1574 45.1449 54.4017 45.1449ZM54.6787 44.1222C53.9585 44.1222 53.4386 43.7983 53.4386 43.1676C53.4386 42.4858 54.0437 42.2429 54.7809 42.1449C55.1943 42.0895 56.1744 41.9787 56.3576 41.7955V42.6392C56.3576 43.4148 55.7397 44.1222 54.6787 44.1222ZM54.6318 37.581H55.6503L56.9713 35.6165H55.6289L54.6318 37.581ZM59.4489 45H60.723V41.0028C60.723 40.1463 61.3835 39.5284 62.2869 39.5284C62.5511 39.5284 62.8494 39.5753 62.9517 39.6051V38.3864C62.8239 38.3693 62.5725 38.3565 62.4105 38.3565C61.6435 38.3565 60.9872 38.7912 60.7486 39.4943H60.6804V38.4545H59.4489V45ZM64.1743 45H65.4485V38.4545H64.1743V45ZM64.8178 37.4446C65.2567 37.4446 65.6232 37.1037 65.6232 36.6861C65.6232 36.2685 65.2567 35.9233 64.8178 35.9233C64.3746 35.9233 64.0124 36.2685 64.0124 36.6861C64.0124 37.1037 64.3746 37.4446 64.8178 37.4446ZM70.0397 45.1321C71.8849 45.1321 73.0909 43.7812 73.0909 41.7571C73.0909 39.7202 71.8849 38.3693 70.0397 38.3693C68.1946 38.3693 66.9886 39.7202 66.9886 41.7571C66.9886 43.7812 68.1946 45.1321 70.0397 45.1321ZM70.044 44.0625C68.838 44.0625 68.2755 43.0099 68.2755 41.7528C68.2755 40.5 68.838 39.4347 70.044 39.4347C71.2414 39.4347 71.8039 40.5 71.8039 41.7528C71.8039 43.0099 71.2414 44.0625 70.044 44.0625ZM80.9502 45.1193C82.7314 45.1193 84.0397 44.054 84.0354 42.6051C84.0397 41.5014 83.3706 40.7088 82.2115 40.5298V40.4616C83.1235 40.2273 83.7158 39.5114 83.7115 38.5312C83.7158 37.2486 82.6633 36.1534 80.9843 36.1534C79.382 36.1534 78.0951 37.1207 78.0525 38.5398H79.3266C79.3564 37.7386 80.1107 37.2528 80.9672 37.2528C81.8579 37.2528 82.4417 37.794 82.4374 38.5994C82.4417 39.4432 81.7641 39.9972 80.7968 39.9972H80.0596V41.071H80.7968C82.007 41.071 82.7059 41.6847 82.7059 42.5625C82.7059 43.4105 81.9686 43.9858 80.9417 43.9858C79.9956 43.9858 79.2584 43.5 79.2073 42.7244H77.8692C77.9246 44.1477 79.186 45.1193 80.9502 45.1193Z" fill="white"/>
<g filter="url(#filter1_d)">
<path d="M9.59375 23.6875L6 5L21.8125 14.3438L13.9062 16.5L9.59375 23.6875Z" fill="#1BC47D"/>
<path d="M8.88793 23.8232L9.24293 25.6692L10.2101 24.0573L14.374 17.1174L22.0016 15.0372L23.6418 14.5898L22.1781 13.725L6.36565 4.38121L4.99311 3.57016L5.29418 5.13573L8.88793 23.8232Z" stroke="white" stroke-width="1.4375" stroke-linecap="square"/>
</g>
<defs>
<filter id="filter0_d" x="17.5" y="23.6875" width="80.5" height="37.375" filterUnits="userSpaceOnUse" color-interpolation-filters="sRGB">
<feFlood flood-opacity="0" result="BackgroundImageFix"/>
<feColorMatrix in="SourceAlpha" type="matrix" values="0 0 0 0 0 0 0 0 0 0 0 0 0 0 0 0 0 0 127 0"/>
<feOffset dy="1.4375"/>
<feGaussianBlur stdDeviation="2.875"/>
<feColorMatrix type="matrix" values="0 0 0 0 0 0 0 0 0 0 0 0 0 0 0 0 0 0 0.16 0"/>
<feBlend mode="normal" in2="BackgroundImageFix" result="effect1_dropShadow"/>
<feBlend mode="normal" in="SourceGraphic" in2="effect1_dropShadow" result="shape"/>
</filter>
<filter id="filter1_d" x="0.986206" y="0.140381" width="27.4849" height="31.5106" filterUnits="userSpaceOnUse" color-interpolation-filters="sRGB">
<feFlood flood-opacity="0" result="BackgroundImageFix"/>
<feColorMatrix in="SourceAlpha" type="matrix" values="0 0 0 0 0 0 0 0 0 0 0 0 0 0 0 0 0 0 127 0"/>
<feOffset dy="1"/>
<feGaussianBlur stdDeviation="1.5"/>
<feColorMatrix type="matrix" values="0 0 0 0 0 0 0 0 0 0 0 0 0 0 0 0 0 0 0.35 0"/>
<feBlend mode="normal" in2="BackgroundImageFix" result="effect1_dropShadow"/>
<feBlend mode="normal" in="SourceGraphic" in2="effect1_dropShadow" result="shape"/>
</filter>
</defs>
</svg>
